<?xml version="1.0" encoding="utf-8"?>
<!-- Generator: Adobe Illustrator 17.0.0, SVG Export Plug-In . SVG Version: 6.00 Build 0)  -->
<!DOCTYPE svg PUBLIC "-//W3C//DTD SVG 1.1//EN" "http://www.w3.org/Graphics/SVG/1.1/DTD/svg11.dtd">
<svg version="1.1" id="Layer_1" xmlns="http://www.w3.org/2000/svg" xmlns:xlink="http://www.w3.org/1999/xlink" x="0px" y="0px"
	 width="124.127px" height="32px" viewBox="0 0 124.127 32" enable-background="new 0 0 124.127 32" xml:space="preserve">
<g id="Layer_2">
</g>
<g>
	<g>
		<path fill="#FFFFFF" d="M11.34,10.451v1.932H8.901v-2.054c0-1.932-0.824-3.096-2.703-3.096c-1.846,0-2.703,1.165-2.703,3.096
			v11.344c0,1.932,0.857,3.096,2.703,3.096c1.879,0,2.703-1.165,2.703-3.096v-2.79h2.439v2.667c0,3.249-1.648,5.395-5.206,5.395
			c-3.527,0-5.174-2.146-5.174-5.395V10.451c0-3.249,1.648-5.395,5.174-5.395C9.692,5.056,11.34,7.202,11.34,10.451z"/>
		<path fill="#FFFFFF" d="M13.483,10.451c0-3.28,1.747-5.395,5.274-5.395c3.56,0,5.306,2.114,5.306,5.395v11.098
			c0,3.249-1.747,5.395-5.306,5.395c-3.527,0-5.274-2.146-5.274-5.395C13.483,21.549,13.483,10.451,13.483,10.451z M16.02,21.672
			c0,1.962,0.89,3.096,2.736,3.096c1.879,0,2.736-1.135,2.736-3.096V10.328c0-1.932-0.857-3.096-2.736-3.096
			c-1.846,0-2.736,1.165-2.736,3.096V21.672z"/>
		<path fill="#FFFFFF" d="M26.302,10.451c0-3.28,1.747-5.395,5.274-5.395c3.56,0,5.307,2.114,5.307,5.395v11.098
			c0,3.249-1.747,5.395-5.307,5.395c-3.527,0-5.274-2.146-5.274-5.395V10.451z M28.84,21.672c0,1.962,0.89,3.096,2.736,3.096
			c1.879,0,2.736-1.135,2.736-3.096V10.328c0-1.932-0.857-3.096-2.736-3.096c-1.846,0-2.736,1.165-2.736,3.096V21.672z"/>
		<path fill="#FFFFFF" d="M47.527,14.775v2.146h-5.636v7.634h6.922v2.177h-9.492V5.27h9.492v2.177h-6.922v7.327H47.527z"/>
		<path fill="#FFFFFF" d="M56.326,5.27c3.625,0,5.141,1.717,5.141,4.904v1.747c0,2.361-0.89,3.832-2.867,4.414
			c2.108,0.583,2.9,2.177,2.9,4.476v3.341c0,0.95,0.032,1.839,0.462,2.575h-2.603c-0.297-0.613-0.43-1.165-0.43-2.606v-3.372
			c0-2.423-1.219-3.189-3.362-3.189h-1.811v9.166h-2.571V5.27H56.326z M55.667,15.387c2.043,0,3.263-0.613,3.263-2.943V10.39
			c0-1.932-0.759-2.942-2.67-2.942h-2.505v7.94C53.755,15.387,55.667,15.387,55.667,15.387z"/>
		<path fill="#FFFFFF" d="M66.049,5.27l3.757,18.669L73.531,5.27h2.372L71.586,26.73h-3.791L63.444,5.27H66.049z"/>
		<path fill="#FFFFFF" d="M77.65,10.451c0-3.28,1.746-5.395,5.273-5.395c3.56,0,5.306,2.114,5.306,5.395v11.098
			c0,3.249-1.746,5.395-5.306,5.395c-3.527,0-5.273-2.146-5.273-5.395V10.451z M80.188,21.672c0,1.962,0.89,3.096,2.735,3.096
			c1.88,0,2.737-1.135,2.737-3.096V10.328c0-1.932-0.857-3.096-2.737-3.096c-1.844,0-2.735,1.165-2.735,3.096
			C80.188,10.328,80.188,21.672,80.188,21.672z"/>
	</g>
	<g>
		<path fill="#FF931E" d="M115.286,8.186l-0.957-0.137c-4.211-1.613-4.922,3.691-4.922,3.691c0,0.395-0.437,1.23-1.066,1.504
			c-2.121,0.922-5.714,6.071-5.714,6.071l-4.43,3.691c0.137,0.519,1.613,0.274,1.613,0.274c2.406,1.312,5.633-1.996,5.633-1.996
			c0.281,0.09,0.55,0.16,0.815,0.221l0.106,1.01l0.31,0.62l0.659,2.316l0,0c0,0-0.643,0.08-1.116,0.807
			c0.307-0.231,1.308-0.475,1.308-0.475c0.75,0.125,1.552,0.325,1.79,0.646c0.044-0.192-0.431-0.576-0.639-0.686
			c-0.132-0.069-0.56-0.202-0.56-0.202c0-0.182-0.319-0.51-0.319-0.51c-0.301-0.11-0.501-1.677-0.501-1.677
			c0.166-0.342,0.164-1.11,0.137-1.665c0.873,0.07,1.644-0.023,2.322-0.226c-0.13,0.536-0.035,1.162-0.035,1.162
			c0.492,0.365,1.495,2.06,1.495,2.06l0.036,0.164l-0.018,0.182l-0.077,0.132c-0.775-0.2-0.944,0.542-0.944,0.542l0.128-0.073
			c0-0.256,0.865-0.125,1.143-0.058c0.52,0.125,1.697,0.386,1.697,0.386s-0.435-0.572-0.719-0.572c-0.408,0-0.52-0.446-0.52-0.446
			c-0.82-0.638-1.277-1.986-1.277-1.986c-0.201-0.784,0.362-1.037,0.362-1.037c1.361-0.378,2.066-2.174,2.394-3.389
			c0.403-0.643,0.582-1.128,0.582-1.128c0.711-0.793,0.492-1.531,0.492-1.531c0.082-0.875-0.629-3.719-0.629-3.719
			c-0.11-1.969,1.176-2.844,1.176-2.844c0.411,0.11,2.351-0.328,2.351-0.328C116.927,8.104,115.286,8.186,115.286,8.186z"/>
		<path fill="#FFFFFF" d="M98.045,5.938c-0.659,0-1.174,0.214-1.546,0.64c-0.372,0.427-0.558,1.004-0.558,1.73
			c0,0.473,0.029,0.93,0.088,1.369s0.127,0.868,0.203,1.286c0.076,0.418,0.143,0.835,0.202,1.248
			c0.059,0.414,0.088,0.833,0.088,1.255c0,0.312-0.046,0.606-0.139,0.881c-0.093,0.274-0.227,0.522-0.4,0.741
			c-0.173,0.22-0.376,0.408-0.608,0.564c-0.233,0.156-0.488,0.272-0.767,0.348c0.279,0.076,0.534,0.19,0.767,0.343
			c0.232,0.152,0.435,0.338,0.608,0.558c0.173,0.219,0.306,0.467,0.4,0.741c0.093,0.275,0.139,0.568,0.139,0.881
			c0,0.422-0.029,0.841-0.088,1.254c-0.059,0.414-0.127,0.831-0.202,1.248c-0.076,0.418-0.144,0.847-0.203,1.286
			c-0.059,0.439-0.088,0.896-0.088,1.369c0,0.735,0.186,1.313,0.558,1.736c0.371,0.422,0.887,0.633,1.546,0.633h0.253
			c0.101,0,0.211,0.038,0.329,0.115c0.119,0.076,0.178,0.198,0.178,0.367v1.014h-0.684c-0.684,0-1.286-0.099-1.805-0.298
			c-0.52-0.199-0.955-0.475-1.305-0.83c-0.351-0.355-0.613-0.778-0.786-1.268c-0.174-0.49-0.26-1.026-0.26-1.609
			c0-0.439,0.034-0.868,0.101-1.286s0.139-0.837,0.216-1.254c0.076-0.418,0.147-0.835,0.215-1.248
			c0.068-0.414,0.101-0.832,0.101-1.255c0-0.532-0.147-0.969-0.443-1.311c-0.296-0.343-0.723-0.513-1.28-0.513v-1.355
			c0.558,0,0.984-0.169,1.28-0.507c0.296-0.338,0.443-0.778,0.443-1.318c0-0.422-0.034-0.841-0.101-1.255
			c-0.068-0.414-0.139-0.828-0.215-1.241c-0.076-0.414-0.148-0.832-0.216-1.255c-0.068-0.422-0.101-0.853-0.101-1.292
			c0-0.583,0.086-1.119,0.26-1.609c0.173-0.49,0.434-0.912,0.786-1.268c0.35-0.355,0.786-0.629,1.305-0.823s1.121-0.292,1.805-0.292
			h0.684v1.001c0,0.169-0.059,0.292-0.178,0.367C98.51,5.901,98.4,5.938,98.299,5.938H98.045z"/>
		<path fill="#FFFFFF" d="M123.168,16.671c-0.558,0-0.984,0.171-1.28,0.513c-0.296,0.342-0.444,0.779-0.444,1.311
			c0,0.423,0.034,0.841,0.102,1.255c0.067,0.414,0.139,0.83,0.215,1.248c0.076,0.418,0.147,0.836,0.215,1.254
			s0.101,0.847,0.101,1.286c0,0.583-0.086,1.119-0.259,1.609c-0.173,0.49-0.435,0.912-0.786,1.268
			c-0.351,0.355-0.786,0.631-1.305,0.83c-0.52,0.198-1.122,0.298-1.806,0.298h-0.684V26.53c0-0.17,0.061-0.292,0.184-0.367
			c0.122-0.076,0.23-0.115,0.323-0.115h0.253c0.659,0,1.174-0.211,1.546-0.633c0.371-0.422,0.558-1.001,0.558-1.736
			c0-0.473-0.03-0.93-0.089-1.369c-0.059-0.439-0.127-0.868-0.202-1.286c-0.076-0.418-0.144-0.834-0.203-1.248
			c-0.059-0.414-0.088-0.832-0.088-1.254c0-0.312,0.046-0.606,0.139-0.881c0.093-0.274,0.226-0.522,0.399-0.741
			c0.174-0.22,0.376-0.406,0.609-0.558c0.232-0.152,0.488-0.266,0.766-0.343c-0.278-0.076-0.534-0.192-0.766-0.348
			c-0.233-0.156-0.435-0.345-0.609-0.564c-0.173-0.219-0.306-0.467-0.399-0.741c-0.093-0.275-0.139-0.568-0.139-0.881
			c0-0.422,0.029-0.841,0.088-1.255c0.059-0.414,0.127-0.83,0.203-1.248c0.076-0.418,0.143-0.847,0.202-1.286
			c0.059-0.439,0.089-0.896,0.089-1.369c0-0.726-0.186-1.302-0.558-1.73c-0.372-0.426-0.887-0.64-1.546-0.64h-0.253
			c-0.093,0-0.201-0.038-0.323-0.114c-0.123-0.076-0.184-0.198-0.184-0.367V4.456h0.684c0.684,0,1.286,0.097,1.806,0.292
			s0.955,0.469,1.305,0.823c0.351,0.355,0.613,0.778,0.786,1.268s0.259,1.026,0.259,1.609c0,0.44-0.034,0.87-0.101,1.292
			c-0.068,0.423-0.139,0.841-0.215,1.255c-0.076,0.414-0.148,0.828-0.215,1.241c-0.068,0.414-0.102,0.833-0.102,1.255
			c0,0.54,0.148,0.98,0.444,1.318s0.722,0.507,1.28,0.507V16.671z"/>
	</g>
</g>
</svg>
