<?xml version="1.0" encoding="utf-8"?>
<!-- Generator: Adobe Illustrator 17.0.0, SVG Export Plug-In . SVG Version: 6.00 Build 0)  -->
<!DOCTYPE svg PUBLIC "-//W3C//DTD SVG 1.1//EN" "http://www.w3.org/Graphics/SVG/1.1/DTD/svg11.dtd">
<svg version="1.1" id="Layer_1" xmlns="http://www.w3.org/2000/svg" xmlns:xlink="http://www.w3.org/1999/xlink" x="0px" y="0px"
	 width="124.127px" height="32px" viewBox="0 0 124.127 32" enable-background="new 0 0 124.127 32" xml:space="preserve">
<g id="Layer_2">
</g>
<g>
	<g>
		<path fill="#FFFFFF" d="M11.897,5.365v1.573H9.911V5.265c0-1.573-0.671-2.521-2.201-2.521c-1.503,0-2.201,0.949-2.201,2.521v9.238
			c0,1.573,0.698,2.521,2.201,2.521c1.53,0,2.201-0.949,2.201-2.521v-2.272h1.986v2.172c0,2.646-1.342,4.394-4.24,4.394
			c-2.872,0-4.214-1.748-4.214-4.394V5.365c0-2.646,1.342-4.394,4.214-4.394C10.555,0.971,11.897,2.719,11.897,5.365z"/>
		<path fill="#FFFFFF" d="M13.642,5.365c0-2.671,1.423-4.394,4.295-4.394c2.899,0,4.321,1.722,4.321,4.394v9.038
			c0,2.646-1.423,4.394-4.321,4.394c-2.872,0-4.295-1.748-4.295-4.394C13.642,14.403,13.642,5.365,13.642,5.365z M15.708,14.503
			c0,1.598,0.725,2.521,2.228,2.521c1.53,0,2.228-0.924,2.228-2.521V5.265c0-1.573-0.698-2.521-2.228-2.521
			c-1.503,0-2.228,0.949-2.228,2.521V14.503z"/>
		<path fill="#FFFFFF" d="M24.082,5.365c0-2.671,1.423-4.394,4.295-4.394c2.899,0,4.322,1.722,4.322,4.394v9.038
			c0,2.646-1.423,4.394-4.322,4.394c-2.872,0-4.295-1.748-4.295-4.394V5.365z M26.149,14.503c0,1.598,0.725,2.521,2.228,2.521
			c1.53,0,2.228-0.924,2.228-2.521V5.265c0-1.573-0.698-2.521-2.228-2.521c-1.503,0-2.228,0.949-2.228,2.521V14.503z"/>
		<path fill="#FFFFFF" d="M41.367,8.886v1.748h-4.59v6.217h5.637v1.773h-7.73V1.146h7.73v1.773h-5.637v5.967H41.367z"/>
		<path fill="#FFFFFF" d="M48.533,1.146c2.952,0,4.187,1.398,4.187,3.994v1.423c0,1.923-0.725,3.121-2.335,3.595
			c1.717,0.475,2.362,1.773,2.362,3.645v2.721c0,0.774,0.026,1.498,0.376,2.097h-2.12c-0.242-0.499-0.35-0.949-0.35-2.122v-2.746
			c0-1.973-0.993-2.597-2.738-2.597H46.44v7.465h-2.094V1.146H48.533z M47.996,9.385c1.664,0,2.657-0.499,2.657-2.397V5.315
			c0-1.573-0.618-2.396-2.174-2.396h-2.04v6.466C46.439,9.385,47.996,9.385,47.996,9.385z"/>
		<path fill="#FFFFFF" d="M56.451,1.146l3.06,15.204l3.033-15.204h1.932L60.96,18.622h-3.087L54.33,1.146H56.451z"/>
		<path fill="#FFFFFF" d="M65.899,5.365c0-2.671,1.422-4.394,4.294-4.394c2.899,0,4.321,1.722,4.321,4.394v9.038
			c0,2.646-1.422,4.394-4.321,4.394c-2.872,0-4.294-1.748-4.294-4.394V5.365z M67.966,14.503c0,1.598,0.725,2.521,2.227,2.521
			c1.531,0,2.229-0.924,2.229-2.521V5.265c0-1.573-0.698-2.521-2.229-2.521c-1.502,0-2.227,0.949-2.227,2.521
			C67.966,5.265,67.966,14.503,67.966,14.503z"/>
	</g>
	<path fill="#FF931E" d="M110.268,5.675l-1.265-0.181c-5.564-2.132-6.504,4.878-6.504,4.878c0,0.522-0.578,1.626-1.409,1.987
		c-2.803,1.219-7.551,8.022-7.551,8.022l-5.854,4.878c0.181,0.686,2.132,0.362,2.132,0.362c3.179,1.734,7.443-2.638,7.443-2.638
		c0.371,0.119,0.727,0.211,1.077,0.292l0.14,1.335l0.41,0.819l0.87,3.06l0,0c0,0-0.85,0.105-1.475,1.067
		c0.406-0.306,1.728-0.627,1.728-0.627c0.991,0.166,2.051,0.429,2.366,0.853c0.058-0.254-0.57-0.762-0.844-0.906
		c-0.174-0.092-0.74-0.266-0.74-0.266c0-0.241-0.422-0.674-0.422-0.674c-0.398-0.145-0.662-2.216-0.662-2.216
		c0.219-0.452,0.217-1.467,0.181-2.2c1.153,0.092,2.173-0.031,3.068-0.298c-0.172,0.708-0.046,1.535-0.046,1.535
		c0.65,0.482,1.975,2.722,1.975,2.722l0.048,0.217l-0.024,0.241l-0.102,0.174c-1.025-0.264-1.247,0.717-1.247,0.717l0.169-0.096
		c0-0.338,1.142-0.166,1.51-0.077c0.687,0.165,2.243,0.51,2.243,0.51s-0.575-0.755-0.95-0.755c-0.54,0-0.688-0.59-0.688-0.59
		c-1.084-0.843-1.687-2.625-1.687-2.625c-0.265-1.036,0.479-1.37,0.479-1.37c1.798-0.5,2.73-2.873,3.164-4.478
		c0.533-0.85,0.769-1.49,0.769-1.49c0.939-1.048,0.65-2.023,0.65-2.023c0.109-1.156-0.831-4.914-0.831-4.914
		c-0.145-2.602,1.554-3.758,1.554-3.758c0.543,0.145,3.107-0.434,3.107-0.434C112.436,5.567,110.268,5.675,110.268,5.675z"/>
	<rect x="3.443" y="20.45" fill="#D00005" width="71.071" height="9.06"/>
	<g>
		<path fill="#FFFFFF" d="M7.036,27.91H6.38l-1.016-4.879v4.888H4.768v-6.131h0.955l1.007,4.896l0.972-4.896h0.955v6.131H8.009
			v-4.931L7.036,27.91z"/>
		<path fill="#FFFFFF" d="M10.051,26.684l-0.237,1.235h-0.63l1.173-6.131h0.99l1.174,6.131h-0.683l-0.236-1.235H10.051z
			 M10.138,26.098h1.366l-0.692-3.539L10.138,26.098z"/>
		<path fill="#FFFFFF" d="M13.607,27.919V22.41h-1.13v-0.622h2.934v0.622h-1.13v5.509C14.281,27.919,13.607,27.919,13.607,27.919z"
			/>
		<path fill="#FFFFFF" d="M18.057,24.503v0.613H16.56v2.181h1.839v0.622h-2.522v-6.131h2.522v0.622H16.56v2.093H18.057z"/>
		<path fill="#FFFFFF" d="M18.978,23.269c0-0.938,0.464-1.542,1.401-1.542c0.946,0,1.41,0.604,1.41,1.542v3.17
			c0,0.929-0.464,1.542-1.41,1.542c-0.937,0-1.401-0.613-1.401-1.542V23.269z M19.652,26.474c0,0.561,0.236,0.885,0.727,0.885
			c0.499,0,0.727-0.324,0.727-0.885v-3.24c0-0.552-0.228-0.885-0.727-0.885c-0.491,0-0.727,0.333-0.727,0.885V26.474z"/>
		<path fill="#FFFFFF" d="M26.502,23.269v0.552h-0.648v-0.587c0-0.552-0.219-0.885-0.718-0.885c-0.491,0-0.718,0.333-0.718,0.885
			v3.24c0,0.552,0.228,0.885,0.718,0.885c0.499,0,0.718-0.333,0.718-0.885v-0.797h0.648v0.762c0,0.929-0.438,1.542-1.384,1.542
			c-0.937,0-1.375-0.613-1.375-1.542v-3.17c0-0.929,0.438-1.542,1.375-1.542C26.064,21.727,26.502,22.34,26.502,23.269z"/>
		<path fill="#FFFFFF" d="M27.773,26.474c0,0.552,0.219,0.885,0.718,0.885c0.49,0,0.709-0.333,0.709-0.885v-4.686h0.639v4.65
			c0,0.929-0.429,1.551-1.375,1.551c-0.937,0-1.366-0.622-1.366-1.551v-4.65h0.674L27.773,26.474L27.773,26.474z"/>
		<path fill="#FFFFFF" d="M32.697,24.503v0.613h-1.498v2.181h1.839v0.622h-2.522v-6.131h2.522v0.622h-1.839v2.093H32.697z"/>
		<path fill="#FFFFFF" d="M35.036,21.788c0.963,0,1.366,0.49,1.366,1.401v0.499c0,0.675-0.236,1.095-0.762,1.262
			c0.561,0.166,0.771,0.621,0.771,1.278v0.955c0,0.271,0.009,0.525,0.123,0.735h-0.692c-0.079-0.175-0.114-0.333-0.114-0.744v-0.963
			c0-0.691-0.324-0.911-0.894-0.911h-0.481v2.619H33.67v-6.131H35.036z M34.861,24.679c0.543,0,0.867-0.176,0.867-0.841v-0.587
			c0-0.552-0.202-0.841-0.709-0.841h-0.666v2.269H34.861z"/>
		<path fill="#FFFFFF" d="M37.62,21.788l0.999,5.334l0.99-5.334h0.63l-1.147,6.131h-1.007l-1.156-6.131H37.62z"/>
		<path fill="#FFFFFF" d="M40.704,23.269c0-0.938,0.464-1.542,1.401-1.542c0.946,0,1.41,0.604,1.41,1.542v3.17
			c0,0.929-0.464,1.542-1.41,1.542c-0.937,0-1.401-0.613-1.401-1.542V23.269z M41.379,26.474c0,0.561,0.236,0.885,0.727,0.885
			c0.499,0,0.727-0.324,0.727-0.885v-3.24c0-0.552-0.228-0.885-0.727-0.885c-0.491,0-0.727,0.333-0.727,0.885V26.474z"/>
		<path fill="#FFFFFF" d="M44.138,24.547h1.673v0.613h-1.673V24.547z"/>
		<path fill="#FFFFFF" d="M47.826,21.788c0.963,0,1.375,0.569,1.375,1.498v0.735c0,0.972-0.456,1.48-1.428,1.48H47.17v2.417h-0.684
			v-6.131h1.34V21.788z M47.774,24.889c0.508,0,0.753-0.236,0.753-0.823v-0.815c0-0.561-0.202-0.841-0.701-0.841H47.17v2.479
			C47.17,24.889,47.774,24.889,47.774,24.889z"/>
		<path fill="#FFFFFF" d="M49.684,23.269c0-0.938,0.464-1.542,1.401-1.542c0.946,0,1.41,0.604,1.41,1.542v3.17
			c0,0.929-0.464,1.542-1.41,1.542c-0.937,0-1.401-0.613-1.401-1.542V23.269z M50.358,26.474c0,0.561,0.236,0.885,0.727,0.885
			c0.499,0,0.727-0.324,0.727-0.885v-3.24c0-0.552-0.228-0.885-0.727-0.885c-0.491,0-0.727,0.333-0.727,0.885V26.474z"/>
		<path fill="#FFFFFF" d="M54.51,21.788c0.963,0,1.366,0.49,1.366,1.401v0.499c0,0.675-0.236,1.095-0.762,1.262
			c0.561,0.166,0.771,0.621,0.771,1.278v0.955c0,0.271,0.009,0.525,0.123,0.735h-0.692c-0.079-0.175-0.114-0.333-0.114-0.744v-0.963
			c0-0.691-0.324-0.911-0.894-0.911h-0.481v2.619h-0.683v-6.131H54.51z M54.335,24.679c0.543,0,0.867-0.176,0.867-0.841v-0.587
			c0-0.552-0.202-0.841-0.709-0.841h-0.666v2.269H54.335z"/>
		<path fill="#FFFFFF" d="M57.48,27.919V22.41h-1.13v-0.622h2.934v0.622h-1.13v5.509C58.154,27.919,57.48,27.919,57.48,27.919z"/>
		<path fill="#FFFFFF" d="M61.843,24.644v0.621h-1.411v2.654H59.75v-6.131h2.435v0.622h-1.751v2.233h1.409V24.644z"/>
		<path fill="#FFFFFF" d="M62.676,23.269c0-0.938,0.465-1.542,1.401-1.542c0.946,0,1.41,0.604,1.41,1.542v3.17
			c0,0.929-0.464,1.542-1.41,1.542c-0.937,0-1.401-0.613-1.401-1.542V23.269z M63.35,26.474c0,0.561,0.236,0.885,0.727,0.885
			c0.499,0,0.728-0.324,0.728-0.885v-3.24c0-0.552-0.229-0.885-0.728-0.885c-0.49,0-0.727,0.333-0.727,0.885V26.474z"/>
		<path fill="#FFFFFF" d="M66.136,27.919v-6.131h0.684v5.509h1.751v0.622H66.136z"/>
		<path fill="#FFFFFF" d="M69.772,21.788v6.131h-0.684v-6.131H69.772z"/>
		<path fill="#FFFFFF" d="M70.421,23.269c0-0.938,0.464-1.542,1.401-1.542c0.945,0,1.41,0.604,1.41,1.542v3.17
			c0,0.929-0.465,1.542-1.41,1.542c-0.938,0-1.401-0.613-1.401-1.542V23.269z M71.094,26.474c0,0.561,0.236,0.885,0.728,0.885
			c0.499,0,0.727-0.324,0.727-0.885v-3.24c0-0.552-0.228-0.885-0.727-0.885c-0.491,0-0.728,0.333-0.728,0.885V26.474z"/>
	</g>
	<path fill="#FFFFFF" d="M87.486,2.704c-0.871,0-1.552,0.283-2.043,0.846c-0.492,0.564-0.737,1.326-0.737,2.285
		c0,0.625,0.039,1.229,0.117,1.809c0.078,0.58,0.167,1.147,0.268,1.699c0.1,0.553,0.19,1.103,0.268,1.649
		c0.078,0.547,0.117,1.1,0.117,1.658c0,0.413-0.061,0.801-0.183,1.164c-0.123,0.362-0.299,0.689-0.528,0.979
		c-0.229,0.291-0.497,0.539-0.803,0.746c-0.307,0.206-0.645,0.36-1.013,0.46c0.369,0.101,0.706,0.252,1.013,0.453
		c0.306,0.201,0.575,0.446,0.803,0.737c0.229,0.29,0.405,0.617,0.528,0.979c0.122,0.363,0.183,0.751,0.183,1.164
		c0,0.558-0.039,1.111-0.117,1.657c-0.078,0.547-0.167,1.098-0.268,1.649c-0.101,0.553-0.19,1.12-0.268,1.7
		c-0.078,0.58-0.117,1.183-0.117,1.809c0,0.971,0.245,1.735,0.737,2.293c0.491,0.558,1.172,0.837,2.043,0.837h0.335
		c0.134,0,0.279,0.05,0.435,0.151c0.157,0.1,0.235,0.261,0.235,0.485v1.339h-0.904c-0.904,0-1.699-0.131-2.386-0.393
		c-0.687-0.263-1.262-0.628-1.725-1.097c-0.464-0.469-0.81-1.028-1.038-1.675c-0.229-0.648-0.344-1.356-0.344-2.126
		c0-0.58,0.044-1.147,0.134-1.7s0.184-1.106,0.285-1.657c0.1-0.553,0.195-1.103,0.284-1.649c0.089-0.547,0.134-1.099,0.134-1.658
		c0-0.703-0.195-1.281-0.586-1.733c-0.392-0.453-0.955-0.679-1.692-0.679v-1.791c0.737,0,1.3-0.223,1.692-0.67
		c0.391-0.446,0.586-1.028,0.586-1.742c0-0.558-0.044-1.111-0.134-1.658c-0.089-0.547-0.184-1.094-0.284-1.641
		c-0.101-0.547-0.196-1.099-0.285-1.658c-0.089-0.558-0.134-1.127-0.134-1.708c0-0.77,0.114-1.478,0.344-2.126
		c0.229-0.648,0.574-1.206,1.038-1.675c0.462-0.469,1.038-0.831,1.725-1.088c0.687-0.257,1.481-0.385,2.386-0.385h0.904v1.323
		c0,0.223-0.078,0.385-0.235,0.485c-0.156,0.101-0.301,0.151-0.435,0.151H87.486z"/>
	<path fill="#FFFFFF" d="M120.684,16.887c-0.737,0-1.3,0.226-1.691,0.679c-0.391,0.452-0.586,1.029-0.586,1.733
		c0,0.559,0.045,1.111,0.135,1.658c0.089,0.547,0.184,1.097,0.284,1.649c0.1,0.552,0.195,1.105,0.284,1.657s0.134,1.12,0.134,1.7
		c0,0.77-0.114,1.478-0.343,2.126c-0.229,0.648-0.575,1.206-1.038,1.675c-0.463,0.469-1.038,0.834-1.725,1.097
		c-0.687,0.262-1.482,0.393-2.386,0.393h-0.904v-1.339c0-0.224,0.081-0.385,0.243-0.485c0.161-0.101,0.304-0.151,0.427-0.151h0.335
		c0.871,0,1.551-0.279,2.043-0.837c0.491-0.558,0.737-1.323,0.737-2.293c0-0.625-0.04-1.229-0.118-1.809
		c-0.078-0.58-0.167-1.147-0.268-1.7c-0.101-0.552-0.19-1.102-0.268-1.649c-0.078-0.547-0.117-1.099-0.117-1.657
		c0-0.413,0.061-0.801,0.184-1.164c0.123-0.362,0.299-0.689,0.527-0.979c0.229-0.291,0.497-0.536,0.804-0.737
		c0.306-0.201,0.645-0.352,1.013-0.453c-0.368-0.1-0.706-0.253-1.013-0.46c-0.307-0.206-0.575-0.455-0.804-0.746
		c-0.229-0.29-0.404-0.617-0.527-0.979c-0.123-0.363-0.184-0.751-0.184-1.164c0-0.558,0.039-1.111,0.117-1.658
		c0.078-0.547,0.167-1.097,0.268-1.649c0.1-0.552,0.19-1.119,0.268-1.699c0.078-0.58,0.118-1.183,0.118-1.809
		c0-0.959-0.246-1.721-0.737-2.285c-0.492-0.563-1.172-0.846-2.043-0.846h-0.335c-0.123,0-0.266-0.05-0.427-0.151
		c-0.162-0.1-0.243-0.262-0.243-0.485V0.746h0.904c0.904,0,1.7,0.128,2.386,0.385s1.261,0.619,1.725,1.088
		c0.463,0.469,0.81,1.028,1.038,1.675c0.229,0.648,0.343,1.356,0.343,2.126c0,0.581-0.044,1.15-0.134,1.708
		c-0.089,0.559-0.184,1.111-0.284,1.658c-0.1,0.547-0.196,1.094-0.284,1.641c-0.089,0.547-0.135,1.1-0.135,1.658
		c0,0.714,0.196,1.295,0.586,1.742c0.391,0.446,0.954,0.67,1.691,0.67V16.887z"/>
</g>
</svg>
