<?xml version="1.0" encoding="utf-8"?>
<!-- Generator: Adobe Illustrator 17.0.0, SVG Export Plug-In . SVG Version: 6.00 Build 0)  -->
<!DOCTYPE svg PUBLIC "-//W3C//DTD SVG 1.1//EN" "http://www.w3.org/Graphics/SVG/1.1/DTD/svg11.dtd">
<svg version="1.1" id="Layer_1" xmlns="http://www.w3.org/2000/svg" xmlns:xlink="http://www.w3.org/1999/xlink" x="0px" y="0px"
	 width="1345.651px" height="960px" viewBox="0 0 1345.651 960" enable-background="new 0 0 1345.651 960" xml:space="preserve">
<g>
	
		<rect x="-195.475" y="-363.362" transform="matrix(-0.7071 -0.7071 0.7071 -0.7071 778.6301 1261.6748)" fill="none" stroke="#000000" stroke-miterlimit="10" width="1692.183" height="1665.88"/>
	<line fill="none" stroke="#000000" stroke-miterlimit="10" x1="1844.006" y1="472.742" x2="666.051" y2="1650.697"/>
	<line fill="none" stroke="#000000" stroke-miterlimit="10" x1="1844.006" y1="472.742" x2="666.051" y2="1650.697"/>
	<line fill="none" stroke="#000000" stroke-miterlimit="10" x1="1831.542" y1="460.278" x2="653.587" y2="1638.233"/>
	<line fill="none" stroke="#000000" stroke-miterlimit="10" x1="1831.542" y1="460.278" x2="653.587" y2="1638.233"/>
	<line fill="none" stroke="#000000" stroke-miterlimit="10" x1="1819.078" y1="447.814" x2="641.123" y2="1625.769"/>
	<line fill="none" stroke="#000000" stroke-miterlimit="10" x1="1819.078" y1="447.814" x2="641.123" y2="1625.769"/>
	<line fill="none" stroke="#000000" stroke-miterlimit="10" x1="1808.395" y1="437.131" x2="630.44" y2="1615.086"/>
	<line fill="none" stroke="#000000" stroke-miterlimit="10" x1="1808.395" y1="437.131" x2="630.44" y2="1615.086"/>
	<line fill="none" stroke="#000000" stroke-miterlimit="10" x1="1795.931" y1="424.666" x2="617.975" y2="1602.622"/>
	<line fill="none" stroke="#000000" stroke-miterlimit="10" x1="1795.931" y1="424.666" x2="617.975" y2="1602.622"/>
	<line fill="none" stroke="#000000" stroke-miterlimit="10" x1="1783.466" y1="412.202" x2="605.511" y2="1590.157"/>
	<line fill="none" stroke="#000000" stroke-miterlimit="10" x1="1783.466" y1="412.202" x2="605.511" y2="1590.157"/>
	<line fill="none" stroke="#000000" stroke-miterlimit="10" x1="1771.002" y1="399.738" x2="593.047" y2="1577.693"/>
	<line fill="none" stroke="#000000" stroke-miterlimit="10" x1="1771.002" y1="399.738" x2="593.047" y2="1577.693"/>
	<line fill="none" stroke="#000000" stroke-miterlimit="10" x1="1760.319" y1="389.055" x2="582.364" y2="1567.01"/>
	<line fill="none" stroke="#000000" stroke-miterlimit="10" x1="1760.319" y1="389.055" x2="582.364" y2="1567.01"/>
	<line fill="none" stroke="#000000" stroke-miterlimit="10" x1="1747.855" y1="376.591" x2="569.9" y2="1554.546"/>
	<line fill="none" stroke="#000000" stroke-miterlimit="10" x1="1747.855" y1="376.591" x2="569.9" y2="1554.546"/>
	<line fill="none" stroke="#000000" stroke-miterlimit="10" x1="1735.391" y1="364.126" x2="557.435" y2="1542.082"/>
	<line fill="none" stroke="#000000" stroke-miterlimit="10" x1="1735.391" y1="364.126" x2="557.435" y2="1542.082"/>
	<line fill="none" stroke="#000000" stroke-miterlimit="10" x1="1724.707" y1="353.443" x2="546.752" y2="1531.398"/>
	<line fill="none" stroke="#000000" stroke-miterlimit="10" x1="1724.707" y1="353.443" x2="546.752" y2="1531.398"/>
	<line fill="none" stroke="#000000" stroke-miterlimit="10" x1="1712.243" y1="340.979" x2="534.288" y2="1518.934"/>
	<line fill="none" stroke="#000000" stroke-miterlimit="10" x1="1712.243" y1="340.979" x2="534.288" y2="1518.934"/>
	<line fill="none" stroke="#000000" stroke-miterlimit="10" x1="1699.779" y1="328.515" x2="521.824" y2="1506.47"/>
	<line fill="none" stroke="#000000" stroke-miterlimit="10" x1="1699.779" y1="328.515" x2="521.824" y2="1506.47"/>
	<line fill="none" stroke="#000000" stroke-miterlimit="10" x1="1687.315" y1="316.051" x2="509.36" y2="1494.006"/>
	<line fill="none" stroke="#000000" stroke-miterlimit="10" x1="1687.315" y1="316.051" x2="509.36" y2="1494.006"/>
	<line fill="none" stroke="#000000" stroke-miterlimit="10" x1="1676.631" y1="305.367" x2="498.676" y2="1483.322"/>
	<line fill="none" stroke="#000000" stroke-miterlimit="10" x1="1676.631" y1="305.367" x2="498.676" y2="1483.322"/>
	<line fill="none" stroke="#000000" stroke-miterlimit="10" x1="1664.167" y1="292.903" x2="486.212" y2="1470.858"/>
	<line fill="none" stroke="#000000" stroke-miterlimit="10" x1="1664.167" y1="292.903" x2="486.212" y2="1470.858"/>
	<line fill="none" stroke="#000000" stroke-miterlimit="10" x1="1651.703" y1="280.439" x2="473.748" y2="1458.394"/>
	<line fill="none" stroke="#000000" stroke-miterlimit="10" x1="1651.703" y1="280.439" x2="473.748" y2="1458.394"/>
	<line fill="none" stroke="#000000" stroke-miterlimit="10" x1="1641.02" y1="269.755" x2="463.064" y2="1447.711"/>
	<line fill="none" stroke="#000000" stroke-miterlimit="10" x1="1641.02" y1="269.755" x2="463.064" y2="1447.711"/>
	<line fill="none" stroke="#000000" stroke-miterlimit="10" x1="1628.555" y1="257.291" x2="450.6" y2="1435.246"/>
	<line fill="none" stroke="#000000" stroke-miterlimit="10" x1="1628.555" y1="257.291" x2="450.6" y2="1435.246"/>
	<line fill="none" stroke="#000000" stroke-miterlimit="10" x1="1616.091" y1="244.827" x2="438.136" y2="1422.782"/>
	<line fill="none" stroke="#000000" stroke-miterlimit="10" x1="1616.091" y1="244.827" x2="438.136" y2="1422.782"/>
	<line fill="none" stroke="#000000" stroke-miterlimit="10" x1="1603.627" y1="232.363" x2="425.672" y2="1410.318"/>
	<line fill="none" stroke="#000000" stroke-miterlimit="10" x1="1603.627" y1="232.363" x2="425.672" y2="1410.318"/>
	<line fill="none" stroke="#000000" stroke-miterlimit="10" x1="1592.944" y1="221.68" x2="414.988" y2="1399.635"/>
	<line fill="none" stroke="#000000" stroke-miterlimit="10" x1="1592.944" y1="221.68" x2="414.988" y2="1399.635"/>
	<line fill="none" stroke="#000000" stroke-miterlimit="10" x1="1580.479" y1="209.215" x2="402.524" y2="1387.171"/>
	<line fill="none" stroke="#000000" stroke-miterlimit="10" x1="1580.479" y1="209.215" x2="402.524" y2="1387.171"/>
	<line fill="none" stroke="#000000" stroke-miterlimit="10" x1="1568.015" y1="196.751" x2="390.06" y2="1374.706"/>
	<line fill="none" stroke="#000000" stroke-miterlimit="10" x1="1568.015" y1="196.751" x2="390.06" y2="1374.706"/>
	<line fill="none" stroke="#000000" stroke-miterlimit="10" x1="1557.332" y1="186.068" x2="379.377" y2="1364.023"/>
	<line fill="none" stroke="#000000" stroke-miterlimit="10" x1="1557.332" y1="186.068" x2="379.377" y2="1364.023"/>
	<line fill="none" stroke="#000000" stroke-miterlimit="10" x1="1544.868" y1="173.604" x2="366.913" y2="1351.559"/>
	<line fill="none" stroke="#000000" stroke-miterlimit="10" x1="1544.868" y1="173.604" x2="366.913" y2="1351.559"/>
	<line fill="none" stroke="#000000" stroke-miterlimit="10" x1="1532.404" y1="161.14" x2="354.449" y2="1339.095"/>
	<line fill="none" stroke="#000000" stroke-miterlimit="10" x1="1532.404" y1="161.14" x2="354.449" y2="1339.095"/>
	<line fill="none" stroke="#000000" stroke-miterlimit="10" x1="1519.94" y1="148.675" x2="341.984" y2="1326.631"/>
	<line fill="none" stroke="#000000" stroke-miterlimit="10" x1="1519.94" y1="148.675" x2="341.984" y2="1326.631"/>
	<line fill="none" stroke="#000000" stroke-miterlimit="10" x1="1509.256" y1="137.992" x2="331.301" y2="1315.947"/>
	<line fill="none" stroke="#000000" stroke-miterlimit="10" x1="1509.256" y1="137.992" x2="331.301" y2="1315.947"/>
	<line fill="none" stroke="#000000" stroke-miterlimit="10" x1="1496.792" y1="125.528" x2="318.837" y2="1303.483"/>
	<line fill="none" stroke="#000000" stroke-miterlimit="10" x1="1496.792" y1="125.528" x2="318.837" y2="1303.483"/>
	<line fill="none" stroke="#000000" stroke-miterlimit="10" x1="1484.328" y1="113.064" x2="306.373" y2="1291.019"/>
	<line fill="none" stroke="#000000" stroke-miterlimit="10" x1="1484.328" y1="113.064" x2="306.373" y2="1291.019"/>
	<line fill="none" stroke="#000000" stroke-miterlimit="10" x1="1471.864" y1="100.6" x2="293.909" y2="1278.555"/>
	<line fill="none" stroke="#000000" stroke-miterlimit="10" x1="1471.864" y1="100.6" x2="293.909" y2="1278.555"/>
	<line fill="none" stroke="#000000" stroke-miterlimit="10" x1="1461.18" y1="89.916" x2="283.225" y2="1267.871"/>
	<line fill="none" stroke="#000000" stroke-miterlimit="10" x1="1461.18" y1="89.916" x2="283.225" y2="1267.871"/>
	<line fill="none" stroke="#000000" stroke-miterlimit="10" x1="1448.716" y1="77.452" x2="270.761" y2="1255.407"/>
	<line fill="none" stroke="#000000" stroke-miterlimit="10" x1="1448.716" y1="77.452" x2="270.761" y2="1255.407"/>
	<line fill="none" stroke="#000000" stroke-miterlimit="10" x1="1436.252" y1="64.988" x2="258.297" y2="1242.943"/>
	<line fill="none" stroke="#000000" stroke-miterlimit="10" x1="1436.252" y1="64.988" x2="258.297" y2="1242.943"/>
	<line fill="none" stroke="#000000" stroke-miterlimit="10" x1="1425.568" y1="54.304" x2="247.613" y2="1232.26"/>
	<line fill="none" stroke="#000000" stroke-miterlimit="10" x1="1425.568" y1="54.304" x2="247.613" y2="1232.26"/>
	<line fill="none" stroke="#000000" stroke-miterlimit="10" x1="1413.104" y1="41.84" x2="235.149" y2="1219.795"/>
	<line fill="none" stroke="#000000" stroke-miterlimit="10" x1="1413.104" y1="41.84" x2="235.149" y2="1219.795"/>
	<line fill="none" stroke="#000000" stroke-miterlimit="10" x1="1400.64" y1="29.376" x2="222.685" y2="1207.331"/>
	<line fill="none" stroke="#000000" stroke-miterlimit="10" x1="1400.64" y1="29.376" x2="222.685" y2="1207.331"/>
	<line fill="none" stroke="#000000" stroke-miterlimit="10" x1="1388.176" y1="16.912" x2="210.221" y2="1194.867"/>
	<line fill="none" stroke="#000000" stroke-miterlimit="10" x1="1388.176" y1="16.912" x2="210.221" y2="1194.867"/>
	<line fill="none" stroke="#000000" stroke-miterlimit="10" x1="1377.493" y1="6.229" x2="199.537" y2="1184.184"/>
	<line fill="none" stroke="#000000" stroke-miterlimit="10" x1="1377.493" y1="6.229" x2="199.537" y2="1184.184"/>
	<line fill="none" stroke="#000000" stroke-miterlimit="10" x1="1365.029" y1="-6.236" x2="187.073" y2="1171.72"/>
	<line fill="none" stroke="#000000" stroke-miterlimit="10" x1="1365.029" y1="-6.236" x2="187.073" y2="1171.72"/>
	<line fill="none" stroke="#000000" stroke-miterlimit="10" x1="1352.564" y1="-18.7" x2="174.609" y2="1159.255"/>
	<line fill="none" stroke="#000000" stroke-miterlimit="10" x1="1352.564" y1="-18.7" x2="174.609" y2="1159.255"/>
	<line fill="none" stroke="#000000" stroke-miterlimit="10" x1="1341.881" y1="-29.383" x2="163.926" y2="1148.572"/>
	<line fill="none" stroke="#000000" stroke-miterlimit="10" x1="1341.881" y1="-29.383" x2="163.926" y2="1148.572"/>
	<line fill="none" stroke="#000000" stroke-miterlimit="10" x1="1329.417" y1="-41.847" x2="151.462" y2="1136.108"/>
	<line fill="none" stroke="#000000" stroke-miterlimit="10" x1="1329.417" y1="-41.847" x2="151.462" y2="1136.108"/>
	<line fill="none" stroke="#000000" stroke-miterlimit="10" x1="1316.953" y1="-54.311" x2="138.998" y2="1123.644"/>
	<line fill="none" stroke="#000000" stroke-miterlimit="10" x1="1316.953" y1="-54.311" x2="138.998" y2="1123.644"/>
	<line fill="none" stroke="#000000" stroke-miterlimit="10" x1="1304.489" y1="-66.776" x2="126.533" y2="1111.18"/>
	<line fill="none" stroke="#000000" stroke-miterlimit="10" x1="1304.489" y1="-66.776" x2="126.533" y2="1111.18"/>
	<line fill="none" stroke="#000000" stroke-miterlimit="10" x1="1293.805" y1="-77.459" x2="115.85" y2="1100.496"/>
	<line fill="none" stroke="#000000" stroke-miterlimit="10" x1="1293.805" y1="-77.459" x2="115.85" y2="1100.496"/>
	<line fill="none" stroke="#000000" stroke-miterlimit="10" x1="1281.341" y1="-89.923" x2="103.386" y2="1088.032"/>
	<line fill="none" stroke="#000000" stroke-miterlimit="10" x1="1281.341" y1="-89.923" x2="103.386" y2="1088.032"/>
	<line fill="none" stroke="#000000" stroke-miterlimit="10" x1="1268.877" y1="-102.387" x2="90.922" y2="1075.568"/>
	<line fill="none" stroke="#000000" stroke-miterlimit="10" x1="1268.877" y1="-102.387" x2="90.922" y2="1075.568"/>
	<line fill="none" stroke="#000000" stroke-miterlimit="10" x1="1258.193" y1="-113.071" x2="80.238" y2="1064.884"/>
	<line fill="none" stroke="#000000" stroke-miterlimit="10" x1="1258.193" y1="-113.071" x2="80.238" y2="1064.884"/>
	<line fill="none" stroke="#000000" stroke-miterlimit="10" x1="1245.729" y1="-125.535" x2="67.774" y2="1052.42"/>
	<line fill="none" stroke="#000000" stroke-miterlimit="10" x1="1245.729" y1="-125.535" x2="67.774" y2="1052.42"/>
	<line fill="none" stroke="#000000" stroke-miterlimit="10" x1="1233.265" y1="-137.999" x2="55.31" y2="1039.956"/>
	<line fill="none" stroke="#000000" stroke-miterlimit="10" x1="1233.265" y1="-137.999" x2="55.31" y2="1039.956"/>
	<line fill="none" stroke="#000000" stroke-miterlimit="10" x1="1220.801" y1="-150.463" x2="42.846" y2="1027.492"/>
	<line fill="none" stroke="#000000" stroke-miterlimit="10" x1="1220.801" y1="-150.463" x2="42.846" y2="1027.492"/>
	<line fill="none" stroke="#000000" stroke-miterlimit="10" x1="1210.117" y1="-161.147" x2="32.162" y2="1016.808"/>
	<line fill="none" stroke="#000000" stroke-miterlimit="10" x1="1210.117" y1="-161.147" x2="32.162" y2="1016.808"/>
	<line fill="none" stroke="#000000" stroke-miterlimit="10" x1="1197.653" y1="-173.611" x2="19.698" y2="1004.344"/>
	<line fill="none" stroke="#000000" stroke-miterlimit="10" x1="1197.653" y1="-173.611" x2="19.698" y2="1004.344"/>
	<line fill="none" stroke="#000000" stroke-miterlimit="10" x1="1185.189" y1="-186.075" x2="7.234" y2="991.88"/>
	<line fill="none" stroke="#000000" stroke-miterlimit="10" x1="1185.189" y1="-186.075" x2="7.234" y2="991.88"/>
	<line fill="none" stroke="#000000" stroke-miterlimit="10" x1="1174.506" y1="-196.758" x2="-3.449" y2="981.197"/>
	<line fill="none" stroke="#000000" stroke-miterlimit="10" x1="1174.506" y1="-196.758" x2="-3.449" y2="981.197"/>
	<line fill="none" stroke="#000000" stroke-miterlimit="10" x1="1162.042" y1="-209.222" x2="-15.914" y2="968.733"/>
	<line fill="none" stroke="#000000" stroke-miterlimit="10" x1="1162.042" y1="-209.222" x2="-15.914" y2="968.733"/>
	<line fill="none" stroke="#000000" stroke-miterlimit="10" x1="1149.578" y1="-221.687" x2="-28.378" y2="956.269"/>
	<line fill="none" stroke="#000000" stroke-miterlimit="10" x1="1149.578" y1="-221.687" x2="-28.378" y2="956.269"/>
	<line fill="none" stroke="#000000" stroke-miterlimit="10" x1="1137.113" y1="-234.151" x2="-40.842" y2="943.804"/>
	<line fill="none" stroke="#000000" stroke-miterlimit="10" x1="1137.113" y1="-234.151" x2="-40.842" y2="943.804"/>
	<line fill="none" stroke="#000000" stroke-miterlimit="10" x1="1126.43" y1="-244.834" x2="-51.525" y2="933.121"/>
	<line fill="none" stroke="#000000" stroke-miterlimit="10" x1="1126.43" y1="-244.834" x2="-51.525" y2="933.121"/>
	<line fill="none" stroke="#000000" stroke-miterlimit="10" x1="1113.966" y1="-257.298" x2="-63.989" y2="920.657"/>
	<line fill="none" stroke="#000000" stroke-miterlimit="10" x1="1113.966" y1="-257.298" x2="-63.989" y2="920.657"/>
	<line fill="none" stroke="#000000" stroke-miterlimit="10" x1="1101.502" y1="-269.762" x2="-76.453" y2="908.193"/>
	<line fill="none" stroke="#000000" stroke-miterlimit="10" x1="1101.502" y1="-269.762" x2="-76.453" y2="908.193"/>
	<line fill="none" stroke="#000000" stroke-miterlimit="10" x1="1090.818" y1="-280.446" x2="-87.137" y2="897.509"/>
	<line fill="none" stroke="#000000" stroke-miterlimit="10" x1="1090.818" y1="-280.446" x2="-87.137" y2="897.509"/>
	<line fill="none" stroke="#000000" stroke-miterlimit="10" x1="1078.354" y1="-292.91" x2="-99.601" y2="885.045"/>
	<line fill="none" stroke="#000000" stroke-miterlimit="10" x1="1078.354" y1="-292.91" x2="-99.601" y2="885.045"/>
	<line fill="none" stroke="#000000" stroke-miterlimit="10" x1="1065.89" y1="-305.374" x2="-112.065" y2="872.581"/>
	<line fill="none" stroke="#000000" stroke-miterlimit="10" x1="1065.89" y1="-305.374" x2="-112.065" y2="872.581"/>
	<line fill="none" stroke="#000000" stroke-miterlimit="10" x1="1053.426" y1="-317.838" x2="-124.529" y2="860.117"/>
	<line fill="none" stroke="#000000" stroke-miterlimit="10" x1="1053.426" y1="-317.838" x2="-124.529" y2="860.117"/>
	<line fill="none" stroke="#000000" stroke-miterlimit="10" x1="1042.742" y1="-328.522" x2="-135.213" y2="849.433"/>
	<line fill="none" stroke="#000000" stroke-miterlimit="10" x1="1042.742" y1="-328.522" x2="-135.213" y2="849.433"/>
	<line fill="none" stroke="#000000" stroke-miterlimit="10" x1="1030.278" y1="-340.986" x2="-147.677" y2="836.969"/>
	<line fill="none" stroke="#000000" stroke-miterlimit="10" x1="1030.278" y1="-340.986" x2="-147.677" y2="836.969"/>
	<line fill="none" stroke="#000000" stroke-miterlimit="10" x1="1017.814" y1="-353.45" x2="-160.141" y2="824.505"/>
	<line fill="none" stroke="#000000" stroke-miterlimit="10" x1="1017.814" y1="-353.45" x2="-160.141" y2="824.505"/>
	<line fill="none" stroke="#000000" stroke-miterlimit="10" x1="1007.131" y1="-364.134" x2="-170.825" y2="813.822"/>
	<line fill="none" stroke="#000000" stroke-miterlimit="10" x1="1007.131" y1="-364.134" x2="-170.825" y2="813.822"/>
	<line fill="none" stroke="#000000" stroke-miterlimit="10" x1="994.666" y1="-376.598" x2="-183.289" y2="801.357"/>
	<line fill="none" stroke="#000000" stroke-miterlimit="10" x1="994.666" y1="-376.598" x2="-183.289" y2="801.357"/>
	<line fill="none" stroke="#000000" stroke-miterlimit="10" x1="982.202" y1="-389.062" x2="-195.753" y2="788.893"/>
	<line fill="none" stroke="#000000" stroke-miterlimit="10" x1="982.202" y1="-389.062" x2="-195.753" y2="788.893"/>
	<line fill="none" stroke="#000000" stroke-miterlimit="10" x1="969.738" y1="-401.526" x2="-208.217" y2="776.429"/>
	<line fill="none" stroke="#000000" stroke-miterlimit="10" x1="969.738" y1="-401.526" x2="-208.217" y2="776.429"/>
	<line fill="none" stroke="#000000" stroke-miterlimit="10" x1="959.055" y1="-412.209" x2="-218.9" y2="765.746"/>
	<line fill="none" stroke="#000000" stroke-miterlimit="10" x1="959.055" y1="-412.209" x2="-218.9" y2="765.746"/>
	<line fill="none" stroke="#000000" stroke-miterlimit="10" x1="946.591" y1="-424.673" x2="-231.365" y2="753.282"/>
	<line fill="none" stroke="#000000" stroke-miterlimit="10" x1="946.591" y1="-424.673" x2="-231.365" y2="753.282"/>
	<line fill="none" stroke="#000000" stroke-miterlimit="10" x1="934.126" y1="-437.138" x2="-243.829" y2="740.818"/>
	<line fill="none" stroke="#000000" stroke-miterlimit="10" x1="934.126" y1="-437.138" x2="-243.829" y2="740.818"/>
	<line fill="none" stroke="#000000" stroke-miterlimit="10" x1="921.662" y1="-449.602" x2="-256.293" y2="728.353"/>
	<line fill="none" stroke="#000000" stroke-miterlimit="10" x1="921.662" y1="-449.602" x2="-256.293" y2="728.353"/>
	<line fill="none" stroke="#000000" stroke-miterlimit="10" x1="910.979" y1="-460.285" x2="-266.976" y2="717.67"/>
	<line fill="none" stroke="#000000" stroke-miterlimit="10" x1="910.979" y1="-460.285" x2="-266.976" y2="717.67"/>
	<line fill="none" stroke="#000000" stroke-miterlimit="10" x1="898.515" y1="-472.749" x2="-279.44" y2="705.206"/>
	<line fill="none" stroke="#000000" stroke-miterlimit="10" x1="898.515" y1="-472.749" x2="-279.44" y2="705.206"/>
	<line fill="none" stroke="#000000" stroke-miterlimit="10" x1="886.051" y1="-485.213" x2="-291.905" y2="692.742"/>
	<line fill="none" stroke="#000000" stroke-miterlimit="10" x1="886.051" y1="-485.213" x2="-291.905" y2="692.742"/>
	<line fill="none" stroke="#000000" stroke-miterlimit="10" x1="875.367" y1="-495.897" x2="-302.588" y2="682.058"/>
	<line fill="none" stroke="#000000" stroke-miterlimit="10" x1="875.367" y1="-495.897" x2="-302.588" y2="682.058"/>
	<line fill="none" stroke="#000000" stroke-miterlimit="10" x1="862.903" y1="-508.361" x2="-315.052" y2="669.594"/>
	<line fill="none" stroke="#000000" stroke-miterlimit="10" x1="862.903" y1="-508.361" x2="-315.052" y2="669.594"/>
	<line fill="none" stroke="#000000" stroke-miterlimit="10" x1="850.439" y1="-520.825" x2="-327.516" y2="657.13"/>
	<line fill="none" stroke="#000000" stroke-miterlimit="10" x1="850.439" y1="-520.825" x2="-327.516" y2="657.13"/>
	<line fill="none" stroke="#000000" stroke-miterlimit="10" x1="837.975" y1="-533.289" x2="-339.98" y2="644.666"/>
	<line fill="none" stroke="#000000" stroke-miterlimit="10" x1="837.975" y1="-533.289" x2="-339.98" y2="644.666"/>
	<line fill="none" stroke="#000000" stroke-miterlimit="10" x1="827.291" y1="-543.973" x2="-350.664" y2="633.982"/>
	<line fill="none" stroke="#000000" stroke-miterlimit="10" x1="827.291" y1="-543.973" x2="-350.664" y2="633.982"/>
	<line fill="none" stroke="#000000" stroke-miterlimit="10" x1="814.827" y1="-556.437" x2="-363.128" y2="621.518"/>
	<line fill="none" stroke="#000000" stroke-miterlimit="10" x1="814.827" y1="-556.437" x2="-363.128" y2="621.518"/>
	<line fill="none" stroke="#000000" stroke-miterlimit="10" x1="802.363" y1="-568.901" x2="-375.592" y2="609.054"/>
	<line fill="none" stroke="#000000" stroke-miterlimit="10" x1="802.363" y1="-568.901" x2="-375.592" y2="609.054"/>
	<line fill="none" stroke="#000000" stroke-miterlimit="10" x1="791.68" y1="-579.585" x2="-386.276" y2="598.371"/>
	<line fill="none" stroke="#000000" stroke-miterlimit="10" x1="791.68" y1="-579.585" x2="-386.276" y2="598.371"/>
	<line fill="none" stroke="#000000" stroke-miterlimit="10" x1="779.215" y1="-592.049" x2="-398.74" y2="585.906"/>
	<line fill="none" stroke="#000000" stroke-miterlimit="10" x1="779.215" y1="-592.049" x2="-398.74" y2="585.906"/>
	<line fill="none" stroke="#000000" stroke-miterlimit="10" x1="766.751" y1="-604.513" x2="-411.204" y2="573.442"/>
	<line fill="none" stroke="#000000" stroke-miterlimit="10" x1="766.751" y1="-604.513" x2="-411.204" y2="573.442"/>
	<line fill="none" stroke="#000000" stroke-miterlimit="10" x1="754.287" y1="-616.977" x2="-423.668" y2="560.978"/>
	<line fill="none" stroke="#000000" stroke-miterlimit="10" x1="754.287" y1="-616.977" x2="-423.668" y2="560.978"/>
	<line fill="none" stroke="#000000" stroke-miterlimit="10" x1="743.604" y1="-627.66" x2="-434.351" y2="550.295"/>
	<line fill="none" stroke="#000000" stroke-miterlimit="10" x1="743.604" y1="-627.66" x2="-434.351" y2="550.295"/>
	<line fill="none" stroke="#000000" stroke-miterlimit="10" x1="731.14" y1="-640.125" x2="-446.816" y2="537.831"/>
	<line fill="none" stroke="#000000" stroke-miterlimit="10" x1="731.14" y1="-640.125" x2="-446.816" y2="537.831"/>
	<line fill="none" stroke="#000000" stroke-miterlimit="10" x1="718.675" y1="-652.589" x2="-459.28" y2="525.367"/>
	<line fill="none" stroke="#000000" stroke-miterlimit="10" x1="718.675" y1="-652.589" x2="-459.28" y2="525.367"/>
	<line fill="none" stroke="#000000" stroke-miterlimit="10" x1="707.992" y1="-663.272" x2="-469.963" y2="514.683"/>
	<line fill="none" stroke="#000000" stroke-miterlimit="10" x1="707.992" y1="-663.272" x2="-469.963" y2="514.683"/>
	<line fill="none" stroke="#000000" stroke-miterlimit="10" x1="695.528" y1="-675.736" x2="-482.427" y2="502.219"/>
	<line fill="none" stroke="#000000" stroke-miterlimit="10" x1="695.528" y1="-675.736" x2="-482.427" y2="502.219"/>
	<line fill="none" stroke="#000000" stroke-miterlimit="10" x1="683.064" y1="-688.2" x2="-494.891" y2="489.755"/>
	<line fill="none" stroke="#000000" stroke-miterlimit="10" x1="683.064" y1="-688.2" x2="-494.891" y2="489.755"/>
	<line fill="none" stroke="#000000" stroke-miterlimit="10" x1="670.6" y1="-700.664" x2="-507.356" y2="477.291"/>
	<line fill="none" stroke="#000000" stroke-miterlimit="10" x1="670.6" y1="-700.664" x2="-507.356" y2="477.291"/>
	<line fill="none" stroke="#000000" stroke-miterlimit="10" x1="659.916" y1="-711.348" x2="-518.039" y2="466.607"/>
	<line fill="none" stroke="#000000" stroke-miterlimit="10" x1="659.916" y1="-711.348" x2="-518.039" y2="466.607"/>
</g>
</svg>
