<?xml version="1.0" encoding="utf-8"?>
<!-- Generator: Adobe Illustrator 17.0.0, SVG Export Plug-In . SVG Version: 6.00 Build 0)  -->
<!DOCTYPE svg PUBLIC "-//W3C//DTD SVG 1.1//EN" "http://www.w3.org/Graphics/SVG/1.1/DTD/svg11.dtd">
<svg version="1.1" id="Layer_1" xmlns="http://www.w3.org/2000/svg" xmlns:xlink="http://www.w3.org/1999/xlink" x="0px" y="0px"
	 width="128.35px" height="29.092px" viewBox="0 0 128.35 29.092" enable-background="new 0 0 128.35 29.092" xml:space="preserve">
<g>
	<g>
		<path fill="#FFFFFF" d="M14.674,11.372v1.573h-1.986v-1.673c0-1.573-0.671-2.521-2.201-2.521c-1.503,0-2.201,0.949-2.201,2.521
			v9.238c0,1.573,0.698,2.521,2.201,2.521c1.53,0,2.201-0.949,2.201-2.521v-2.272h1.986v2.172c0,2.646-1.342,4.394-4.24,4.394
			c-2.872,0-4.214-1.748-4.214-4.394v-9.038c0-2.646,1.342-4.394,4.214-4.394C13.332,6.978,14.674,8.726,14.674,11.372z"/>
		<path fill="#FFFFFF" d="M16.419,11.372c0-2.671,1.423-4.394,4.295-4.394c2.899,0,4.321,1.722,4.321,4.394v9.038
			c0,2.646-1.423,4.394-4.321,4.394c-2.872,0-4.295-1.748-4.295-4.394C16.419,20.41,16.419,11.372,16.419,11.372z M18.485,20.51
			c0,1.598,0.725,2.521,2.228,2.521c1.53,0,2.228-0.924,2.228-2.521v-9.238c0-1.573-0.698-2.521-2.228-2.521
			c-1.503,0-2.228,0.949-2.228,2.521V20.51z"/>
		<path fill="#FFFFFF" d="M26.859,11.372c0-2.671,1.423-4.394,4.295-4.394c2.899,0,4.322,1.722,4.322,4.394v9.038
			c0,2.646-1.423,4.394-4.322,4.394c-2.872,0-4.295-1.748-4.295-4.394C26.859,20.41,26.859,11.372,26.859,11.372z M28.926,20.51
			c0,1.598,0.725,2.521,2.228,2.521c1.53,0,2.228-0.924,2.228-2.521v-9.238c0-1.573-0.698-2.521-2.228-2.521
			c-1.503,0-2.228,0.949-2.228,2.521C28.926,11.272,28.926,20.51,28.926,20.51z"/>
		<path fill="#FFFFFF" d="M44.144,14.893v1.748h-4.59v6.217h5.637v1.773h-7.73V7.153h7.73v1.773h-5.637v5.967H44.144z"/>
		<path fill="#FFFFFF" d="M51.31,7.153c2.952,0,4.187,1.398,4.187,3.994v1.423c0,1.923-0.725,3.121-2.335,3.595
			c1.717,0.475,2.362,1.773,2.362,3.645v2.721c0,0.774,0.026,1.498,0.376,2.097h-2.12c-0.242-0.499-0.35-0.949-0.35-2.122V19.76
			c0-1.973-0.993-2.597-2.738-2.597h-1.475v7.465h-2.094V7.153H51.31z M50.773,15.392c1.664,0,2.657-0.499,2.657-2.397v-1.673
			c0-1.573-0.618-2.396-2.174-2.396h-2.04v6.466C49.216,15.392,50.773,15.392,50.773,15.392z"/>
		<path fill="#FFFFFF" d="M59.228,7.153l3.06,15.204l3.033-15.204h1.932l-3.516,17.476H60.65L57.107,7.153H59.228z"/>
		<path fill="#FFFFFF" d="M68.676,11.372c0-2.671,1.422-4.394,4.294-4.394c2.899,0,4.321,1.722,4.321,4.394v9.038
			c0,2.646-1.422,4.394-4.321,4.394c-2.872,0-4.294-1.748-4.294-4.394V11.372z M70.743,20.51c0,1.598,0.725,2.521,2.227,2.521
			c1.531,0,2.229-0.924,2.229-2.521v-9.238c0-1.573-0.698-2.521-2.229-2.521c-1.502,0-2.227,0.949-2.227,2.521V20.51z"/>
	</g>
	<path fill="#FF931E" d="M112.111,6.537l-1.049-0.15c-4.615-1.768-5.394,4.046-5.394,4.046c0,0.433-0.479,1.349-1.169,1.648
		c-2.325,1.011-6.263,6.653-6.263,6.653l-4.855,4.046c0.15,0.569,1.768,0.3,1.768,0.3c2.637,1.438,6.173-2.188,6.173-2.188
		c0.308,0.099,0.603,0.175,0.893,0.242l0.116,1.107l0.34,0.679l0.759,2.417l-0.08,0.26l0.1,0.259l-0.1,0.401l0.28,0.2
		c0,0,0.28-0.16,0.18-0.26s-0.015-0.452-0.015-0.452c-0.06,0.38,1.161,0.247,1.422,0.599c0.048-0.211-0.077-0.363-0.135-0.414
		c0.163-0.145,0.665,0.028,0.665,0.028c-0.391-0.484-0.834-0.154-0.892-0.107c-0.051,0.001-0.244-0.021-0.244-0.021l-0.362-0.272
		c0-0.2-0.35-0.559-0.35-0.559c-0.33-0.12-0.549-1.838-0.549-1.838c0.182-0.375,0.18-1.217,0.15-1.825
		c0.956,0.076,1.802-0.026,2.545-0.247c-0.143,0.587-0.038,1.273-0.038,1.273c0.539,0.4,1.638,2.258,1.638,2.258l0.04,0.18
		l-0.02,0.2l-0.14,0.24c-0.905-0.479-0.979,0.499-0.979,0.499l0.14-0.08c0-0.28,1.152-0.094,1.152-0.094
		c0.56,0.173,1.961,0.453,1.961,0.453s0.189-0.048-0.205-0.315c0.4,0.02,0.355,0.208,0.355,0.208c0.16-0.14-0.018-0.306-0.018-0.306
		c0.16,0,0.285,0.217,0.285,0.217c0.26-0.659-1.136-0.281-1.136-0.281c-0.44,0.08-0.639-0.639-0.639-0.639
		c-0.899-0.699-1.399-2.177-1.399-2.177c-0.22-0.859,0.397-1.136,0.397-1.136c1.491-0.415,2.264-2.383,2.624-3.714
		c0.442-0.705,0.638-1.236,0.638-1.236c0.779-0.869,0.539-1.678,0.539-1.678c0.09-0.959-0.689-4.076-0.689-4.076
		c-0.12-2.158,1.289-3.117,1.289-3.117c0.45,0.12,2.577-0.36,2.577-0.36C113.909,6.447,112.111,6.537,112.111,6.537z"/>
	<g>
		<path fill="#FFFFFF" d="M91.548,3.96c-1.665,0-1.971,1.122-2.073,2.821l-0.204,4.283c-0.067,1.596-0.34,2.956-2.209,3.5
			c1.869,0.51,2.142,1.869,2.209,3.5l0.204,4.248c0.101,1.734,0.407,2.821,2.073,2.821h0.748v1.326h-1.257
			c-2.108,0-2.855-1.427-2.991-3.535l-0.238-4.656c-0.068-1.801-0.272-2.718-2.141-2.99V13.85c1.869-0.306,2.073-1.19,2.141-2.991
			l0.238-4.69c0.136-2.073,0.883-3.534,2.991-3.534h1.257V3.96H91.548z"/>
		<path fill="#FFFFFF" d="M116.727,2.635c2.141,0,2.854,1.461,2.99,3.534l0.238,4.69c0.102,1.801,0.272,2.685,2.175,2.991v1.427
			c-1.903,0.272-2.073,1.189-2.175,2.99l-0.238,4.656c-0.136,2.108-0.849,3.535-2.99,3.535h-1.257v-1.326h0.781
			c1.631,0,1.937-1.087,2.039-2.821l0.238-4.248c0.068-1.631,0.306-2.99,2.209-3.5c-1.903-0.543-2.141-1.903-2.209-3.5L118.29,6.78
			c-0.102-1.699-0.408-2.821-2.039-2.821h-0.781V2.635H116.727z"/>
	</g>
</g>
</svg>
