<?xml version="1.0" encoding="utf-8"?>
<!-- Generator: Adobe Illustrator 17.0.0, SVG Export Plug-In . SVG Version: 6.00 Build 0)  -->
<!DOCTYPE svg PUBLIC "-//W3C//DTD SVG 1.1//EN" "http://www.w3.org/Graphics/SVG/1.1/DTD/svg11.dtd">
<svg version="1.1" id="Layer_1" xmlns="http://www.w3.org/2000/svg" xmlns:xlink="http://www.w3.org/1999/xlink" x="0px" y="0px"
	 width="124.127px" height="32px" viewBox="0 -3 124.127 32" enable-background="new 0 -3 124.127 32" xml:space="preserve">
<g id="Layer_2">
</g>
<g>
	<path fill="#FFFFFF" d="M12.677,2.394v1.573h-1.986V2.294c0-1.573-0.671-2.521-2.201-2.521c-1.503,0-2.201,0.949-2.201,2.521v9.238
		c0,1.573,0.698,2.521,2.201,2.521c1.53,0,2.201-0.949,2.201-2.521V9.26h1.986v2.172c0,2.646-1.342,4.394-4.24,4.394
		c-2.872,0-4.214-1.748-4.214-4.394V2.394C4.223-0.252,5.565-2,8.437-2C11.335-2,12.677-0.252,12.677,2.394z"/>
	<path fill="#FFFFFF" d="M14.422,2.394C14.422-0.277,15.845-2,18.717-2c2.899,0,4.321,1.722,4.321,4.394v9.038
		c0,2.646-1.423,4.394-4.321,4.394c-2.872,0-4.295-1.748-4.295-4.394C14.422,11.432,14.422,2.394,14.422,2.394z M16.488,11.532
		c0,1.598,0.725,2.521,2.228,2.521c1.53,0,2.228-0.924,2.228-2.521V2.294c0-1.573-0.698-2.521-2.228-2.521
		c-1.503,0-2.228,0.949-2.228,2.521V11.532z"/>
	<path fill="#FFFFFF" d="M24.862,2.394C24.862-0.277,26.285-2,29.157-2c2.899,0,4.322,1.722,4.322,4.394v9.038
		c0,2.646-1.423,4.394-4.322,4.394c-2.872,0-4.295-1.748-4.295-4.394C24.862,11.432,24.862,2.394,24.862,2.394z M26.929,11.532
		c0,1.598,0.725,2.521,2.228,2.521c1.53,0,2.228-0.924,2.228-2.521V2.294c0-1.573-0.698-2.521-2.228-2.521
		c-1.503,0-2.228,0.949-2.228,2.521V11.532z"/>
	<path fill="#FFFFFF" d="M42.147,5.915v1.748h-4.59v6.217h5.637v1.773h-7.73V-1.825h7.73v1.773h-5.637v5.967H42.147z"/>
	<path fill="#FFFFFF" d="M49.313-1.825c2.952,0,4.187,1.398,4.187,3.994v1.423c0,1.923-0.725,3.121-2.335,3.595
		c1.717,0.475,2.362,1.773,2.362,3.645v2.721c0,0.774,0.026,1.498,0.376,2.097h-2.12c-0.242-0.499-0.35-0.949-0.35-2.122v-2.746
		c0-1.973-0.993-2.597-2.738-2.597H47.22v7.465h-2.094V-1.825H49.313z M48.776,6.414c1.664,0,2.657-0.499,2.657-2.397V2.344
		c0-1.573-0.618-2.396-2.174-2.396h-2.04v6.466H48.776z"/>
	<path fill="#FFFFFF" d="M57.231-1.825l3.06,15.204l3.033-15.204h1.932L61.74,15.651h-3.087L55.11-1.825H57.231z"/>
	<path fill="#FFFFFF" d="M66.679,2.394C66.679-0.277,68.101-2,70.973-2c2.899,0,4.321,1.722,4.321,4.394v9.038
		c0,2.646-1.422,4.394-4.321,4.394c-2.872,0-4.294-1.748-4.294-4.394V2.394z M68.746,11.532c0,1.598,0.725,2.521,2.227,2.521
		c1.531,0,2.229-0.924,2.229-2.521V2.294c0-1.573-0.698-2.521-2.229-2.521c-1.502,0-2.227,0.949-2.227,2.521
		C68.746,2.294,68.746,11.532,68.746,11.532z"/>
</g>
<g>
	<path fill="#FF931E" d="M112.048,2.704l-1.265-0.181c-5.564-2.132-6.504,4.878-6.504,4.878c0,0.522-0.578,1.626-1.409,1.987
		c-2.803,1.219-7.551,8.022-7.551,8.022l-5.854,4.878c0.181,0.686,2.132,0.362,2.132,0.362c3.179,1.734,7.443-2.638,7.443-2.638
		c0.371,0.119,0.727,0.211,1.077,0.292l0.14,1.335l0.41,0.819l0.915,2.914l-0.096,0.313l0.121,0.312l-0.121,0.483l0.338,0.241
		c0,0,0.338-0.193,0.217-0.313s-0.018-0.545-0.018-0.545c-0.072,0.458,1.4,0.298,1.715,0.722c0.058-0.254-0.093-0.438-0.163-0.499
		c0.197-0.175,0.802,0.034,0.802,0.034c-0.471-0.584-1.006-0.186-1.075-0.129c-0.061,0.001-0.294-0.025-0.294-0.025l-0.436-0.328
		c0-0.241-0.422-0.674-0.422-0.674c-0.398-0.145-0.662-2.216-0.662-2.216c0.219-0.452,0.217-1.467,0.181-2.2
		c1.153,0.092,2.173-0.031,3.068-0.298c-0.172,0.708-0.046,1.535-0.046,1.535c0.65,0.482,1.975,2.722,1.975,2.722l0.048,0.217
		l-0.024,0.241l-0.169,0.289c-1.091-0.578-1.18,0.602-1.18,0.602l0.169-0.096c0-0.338,1.389-0.113,1.389-0.113
		c0.675,0.209,2.364,0.546,2.364,0.546s0.228-0.058-0.247-0.38c0.482,0.024,0.428,0.251,0.428,0.251
		c0.193-0.169-0.022-0.369-0.022-0.369c0.193,0,0.344,0.262,0.344,0.262c0.313-0.795-1.37-0.339-1.37-0.339
		c-0.531,0.096-0.77-0.77-0.77-0.77c-1.084-0.843-1.687-2.625-1.687-2.625c-0.265-1.036,0.479-1.37,0.479-1.37
		c1.798-0.5,2.73-2.873,3.164-4.478c0.533-0.85,0.769-1.49,0.769-1.49c0.939-1.048,0.65-2.023,0.65-2.023
		c0.109-1.156-0.831-4.914-0.831-4.914c-0.145-2.602,1.554-3.758,1.554-3.758c0.543,0.145,3.107-0.434,3.107-0.434
		C114.216,2.596,112.048,2.704,112.048,2.704z"/>
	<g>
		<path fill="#FFFFFF" d="M87.254-0.403c-2.008,0-2.377,1.353-2.499,3.401l-0.247,5.163c-0.081,1.925-0.41,3.564-2.663,4.219
			c2.254,0.615,2.582,2.254,2.663,4.221l0.247,5.121c0.122,2.09,0.491,3.401,2.499,3.401h0.902v1.598H86.64
			c-2.541,0-3.442-1.72-3.606-4.262l-0.287-5.613c-0.082-2.171-0.328-3.278-2.581-3.605v-1.72c2.254-0.369,2.499-1.435,2.581-3.606
			l0.287-5.654C83.198-0.238,84.099-2,86.64-2h1.516v1.597C88.156-0.403,87.254-0.403,87.254-0.403z"/>
		<path fill="#FFFFFF" d="M117.613-2c2.581,0,3.441,1.762,3.605,4.261l0.287,5.654c0.123,2.171,0.328,3.238,2.622,3.606v1.72
			c-2.295,0.328-2.499,1.434-2.622,3.605l-0.287,5.613c-0.164,2.541-1.024,4.262-3.605,4.262h-1.516v-1.598h0.942
			c1.967,0,2.336-1.311,2.459-3.401l0.287-5.121c0.082-1.967,0.369-3.605,2.663-4.221c-2.295-0.655-2.581-2.295-2.663-4.219
			l-0.287-5.163c-0.123-2.048-0.492-3.401-2.459-3.401h-0.942V-2C116.097-2,117.613-2,117.613-2z"/>
	</g>
</g>
<rect x="4.223" y="17.479" fill="#D00005" width="71.071" height="9.06"/>
<g>
	<path fill="#FFFFFF" d="M7.816,24.939H7.16l-1.016-4.879v4.888H5.548v-6.131h0.955l1.007,4.896l0.972-4.896h0.955v6.131H8.789
		v-4.931L7.816,24.939z"/>
	<path fill="#FFFFFF" d="M10.831,23.713l-0.237,1.235h-0.63l1.173-6.131h0.99l1.174,6.131h-0.683l-0.236-1.235H10.831z
		 M10.918,23.127h1.366l-0.692-3.539L10.918,23.127z"/>
	<path fill="#FFFFFF" d="M14.387,24.948v-5.509h-1.13v-0.622h2.934v0.622h-1.13v5.509H14.387z"/>
	<path fill="#FFFFFF" d="M18.837,21.532v0.613H17.34v2.181h1.839v0.622h-2.522v-6.131h2.522v0.622H17.34v2.093H18.837z"/>
	<path fill="#FFFFFF" d="M19.758,20.298c0-0.938,0.464-1.542,1.401-1.542c0.946,0,1.41,0.604,1.41,1.542v3.17
		c0,0.929-0.464,1.542-1.41,1.542c-0.937,0-1.401-0.613-1.401-1.542V20.298z M20.432,23.503c0,0.561,0.236,0.885,0.727,0.885
		c0.499,0,0.727-0.324,0.727-0.885v-3.24c0-0.552-0.228-0.885-0.727-0.885c-0.491,0-0.727,0.333-0.727,0.885V23.503z"/>
	<path fill="#FFFFFF" d="M27.282,20.298v0.552h-0.648v-0.587c0-0.552-0.219-0.885-0.718-0.885c-0.491,0-0.718,0.333-0.718,0.885
		v3.24c0,0.552,0.228,0.885,0.718,0.885c0.499,0,0.718-0.333,0.718-0.885v-0.797h0.648v0.762c0,0.929-0.438,1.542-1.384,1.542
		c-0.937,0-1.375-0.613-1.375-1.542v-3.17c0-0.929,0.438-1.542,1.375-1.542C26.844,18.756,27.282,19.369,27.282,20.298z"/>
	<path fill="#FFFFFF" d="M28.553,23.503c0,0.552,0.219,0.885,0.718,0.885c0.49,0,0.709-0.333,0.709-0.885v-4.686h0.639v4.65
		c0,0.929-0.429,1.551-1.375,1.551c-0.937,0-1.366-0.622-1.366-1.551v-4.65h0.674V23.503z"/>
	<path fill="#FFFFFF" d="M33.477,21.532v0.613h-1.498v2.181h1.839v0.622h-2.522v-6.131h2.522v0.622h-1.839v2.093H33.477z"/>
	<path fill="#FFFFFF" d="M35.816,18.817c0.963,0,1.366,0.49,1.366,1.401v0.499c0,0.675-0.236,1.095-0.762,1.262
		c0.561,0.166,0.771,0.621,0.771,1.278v0.955c0,0.271,0.009,0.525,0.123,0.735h-0.692c-0.079-0.175-0.114-0.333-0.114-0.744V23.24
		c0-0.691-0.324-0.911-0.894-0.911h-0.481v2.619H34.45v-6.131H35.816z M35.641,21.708c0.543,0,0.867-0.176,0.867-0.841V20.28
		c0-0.552-0.202-0.841-0.709-0.841h-0.666v2.269H35.641z"/>
	<path fill="#FFFFFF" d="M38.4,18.817l0.999,5.334l0.99-5.334h0.63l-1.147,6.131h-1.007l-1.156-6.131H38.4z"/>
	<path fill="#FFFFFF" d="M41.484,20.298c0-0.938,0.464-1.542,1.401-1.542c0.946,0,1.41,0.604,1.41,1.542v3.17
		c0,0.929-0.464,1.542-1.41,1.542c-0.937,0-1.401-0.613-1.401-1.542V20.298z M42.159,23.503c0,0.561,0.236,0.885,0.727,0.885
		c0.499,0,0.727-0.324,0.727-0.885v-3.24c0-0.552-0.228-0.885-0.727-0.885c-0.491,0-0.727,0.333-0.727,0.885V23.503z"/>
	<path fill="#FFFFFF" d="M44.918,21.576h1.673v0.613h-1.673V21.576z"/>
	<path fill="#FFFFFF" d="M48.606,18.817c0.963,0,1.375,0.569,1.375,1.498v0.735c0,0.972-0.456,1.48-1.428,1.48H47.95v2.417h-0.684
		v-6.131H48.606z M48.554,21.918c0.508,0,0.753-0.236,0.753-0.823V20.28c0-0.561-0.202-0.841-0.701-0.841H47.95v2.479H48.554z"/>
	<path fill="#FFFFFF" d="M50.464,20.298c0-0.938,0.464-1.542,1.401-1.542c0.946,0,1.41,0.604,1.41,1.542v3.17
		c0,0.929-0.464,1.542-1.41,1.542c-0.937,0-1.401-0.613-1.401-1.542V20.298z M51.138,23.503c0,0.561,0.236,0.885,0.727,0.885
		c0.499,0,0.727-0.324,0.727-0.885v-3.24c0-0.552-0.228-0.885-0.727-0.885c-0.491,0-0.727,0.333-0.727,0.885V23.503z"/>
	<path fill="#FFFFFF" d="M55.29,18.817c0.963,0,1.366,0.49,1.366,1.401v0.499c0,0.675-0.236,1.095-0.762,1.262
		c0.561,0.166,0.771,0.621,0.771,1.278v0.955c0,0.271,0.009,0.525,0.123,0.735h-0.692c-0.079-0.175-0.114-0.333-0.114-0.744V23.24
		c0-0.691-0.324-0.911-0.894-0.911h-0.481v2.619h-0.683v-6.131H55.29z M55.115,21.708c0.543,0,0.867-0.176,0.867-0.841V20.28
		c0-0.552-0.202-0.841-0.709-0.841h-0.666v2.269H55.115z"/>
	<path fill="#FFFFFF" d="M58.26,24.948v-5.509h-1.13v-0.622h2.934v0.622h-1.13v5.509H58.26z"/>
	<path fill="#FFFFFF" d="M62.623,21.673v0.621h-1.411v2.654H60.53v-6.131h2.435v0.622h-1.751v2.233H62.623z"/>
	<path fill="#FFFFFF" d="M63.456,20.298c0-0.938,0.465-1.542,1.401-1.542c0.946,0,1.41,0.604,1.41,1.542v3.17
		c0,0.929-0.464,1.542-1.41,1.542c-0.937,0-1.401-0.613-1.401-1.542V20.298z M64.13,23.503c0,0.561,0.236,0.885,0.727,0.885
		c0.499,0,0.728-0.324,0.728-0.885v-3.24c0-0.552-0.229-0.885-0.728-0.885c-0.49,0-0.727,0.333-0.727,0.885V23.503z"/>
	<path fill="#FFFFFF" d="M66.916,24.948v-6.131H67.6v5.509h1.751v0.622H66.916z"/>
	<path fill="#FFFFFF" d="M70.552,18.817v6.131h-0.684v-6.131H70.552z"/>
	<path fill="#FFFFFF" d="M71.201,20.298c0-0.938,0.464-1.542,1.401-1.542c0.945,0,1.41,0.604,1.41,1.542v3.17
		c0,0.929-0.465,1.542-1.41,1.542c-0.938,0-1.401-0.613-1.401-1.542V20.298z M71.874,23.503c0,0.561,0.236,0.885,0.728,0.885
		c0.499,0,0.727-0.324,0.727-0.885v-3.24c0-0.552-0.228-0.885-0.727-0.885c-0.491,0-0.728,0.333-0.728,0.885V23.503z"/>
</g>
</svg>
